<?xml version="1.0" encoding="utf-8"?>
<!-- Generator: Adobe Illustrator 23.1.0, SVG Export Plug-In . SVG Version: 6.00 Build 0)  -->
<svg version="1.1" id="Слой_1" xmlns="http://www.w3.org/2000/svg" xmlns:xlink="http://www.w3.org/1999/xlink" x="0px" y="0px"
	 viewBox="0 0 68 65" style="enable-background:new 0 0 68 65;" xml:space="preserve">
<style type="text/css">
	.st0{fill:#BFBFBF;}
	.st1{fill:#212121;stroke:#212121;stroke-width:3;stroke-miterlimit:10;}
</style>
<circle class="st0" cx="34" cy="32.5" r="29"/>
<path class="st1" d="M34,14.6L34,14.6c0.9,0,1.7,0.7,1.7,1.7v32.9c0,0.9-0.7,1.7-1.7,1.7l0,0c-0.9,0-1.7-0.7-1.7-1.7V16.3
	C32.3,15.3,33.1,14.6,34,14.6z"/>
<path class="st1" d="M15.1,33L15.1,33c0-0.9,0.7-1.7,1.7-1.7h34.5c0.9,0,1.7,0.7,1.7,1.7l0,0c0,0.9-0.7,1.7-1.7,1.7H16.8
	C15.8,34.6,15.1,33.9,15.1,33z"/>
</svg>
