<?xml version="1.0" encoding="utf-8"?>
<!-- Generator: Adobe Illustrator 23.1.0, SVG Export Plug-In . SVG Version: 6.00 Build 0)  -->
<svg version="1.1" id="Слой_1" xmlns="http://www.w3.org/2000/svg" xmlns:xlink="http://www.w3.org/1999/xlink" x="0px" y="0px"
	 viewBox="0 0 22.8 22.8" style="enable-background:new 0 0 22.8 22.8;" xml:space="preserve">
<style type="text/css">
	.st0{fill:#BFBFBF;}
</style>
<title>logo</title>
<path class="st0" d="M22.8,18.4l0-13.9c0-2.5-2-4.5-4.4-4.5c0,0,0,0,0,0L4.5,0C2,0,0,2,0,4.4c0,0,0,0,0,0l0,13.9
	c0,2.5,2,4.5,4.4,4.5c0,0,0,0,0,0l13.9,0C20.8,22.8,22.8,20.9,22.8,18.4C22.8,18.4,22.8,18.4,22.8,18.4z M5.4,6.9
	C4.3,7.2,3.1,6.4,2.9,5.3C2.7,4.1,3.4,3,4.6,2.7c1.2-0.2,2.3,0.5,2.5,1.7c0,0,0,0,0,0C7.3,5.6,6.6,6.7,5.4,6.9L5.4,6.9z M11.8,13.5
	c-1.2,0.2-2.3-0.5-2.5-1.7C9.1,10.7,9.8,9.6,11,9.3c1.2-0.2,2.3,0.5,2.5,1.7c0,0,0,0,0,0C13.7,12.2,13,13.3,11.8,13.5L11.8,13.5z
	 M16.8,19.8c-1-0.6-1.4-1.9-0.9-2.9c0.6-1,1.9-1.4,2.9-0.9c1,0.6,1.4,1.9,0.9,2.9C19.1,20,17.8,20.4,16.8,19.8
	C16.8,19.9,16.8,19.9,16.8,19.8L16.8,19.8z"/>
</svg>
