<?xml version="1.0" encoding="utf-8"?>
<!-- Generator: Adobe Illustrator 23.1.0, SVG Export Plug-In . SVG Version: 6.00 Build 0)  -->
<svg version="1.1" id="Слой_1" xmlns="http://www.w3.org/2000/svg" xmlns:xlink="http://www.w3.org/1999/xlink" x="0px" y="0px"
	 viewBox="0 0 26.4 19" style="enable-background:new 0 0 26.4 19;" xml:space="preserve">
<style type="text/css">
	.st0{fill:#BFBFBF;}
</style>
<g>
	<path class="st0" d="M6.5,11.8C6.1,12.6,6,13.3,6.2,14l0.2,0.8l-1.9,0.4l-0.2-0.7c-0.3-0.9-0.2-2,0.4-3.2c0.5-0.9,0.7-1.5,0.6-2.1
		C5.1,8.6,4.6,8.3,3.9,8.5c-0.5,0.1-1,0.4-1.2,0.7L2.3,9.6L1.3,8l0.2-0.2c0.5-0.5,1.4-1,2.3-1.2c0.9-0.2,1.8-0.1,2.4,0.3
		c0.6,0.4,1,1,1.1,1.7C7.5,9.7,7.1,10.7,6.5,11.8z"/>
</g>
<g>
	<path class="st0" d="M7.4,18c-0.2,0.3-0.5,0.5-0.8,0.6c-0.1,0-0.2,0-0.3,0c-0.6,0-1.1-0.4-1.3-1.1c-0.1-0.4,0-0.8,0.2-1.1
		C5.3,16.2,5.6,16,6,15.9c0.7-0.2,1.4,0.3,1.6,1C7.6,17.3,7.6,17.7,7.4,18z"/>
</g>
<g>
	<path class="st0" d="M15.6,7.9c-0.8,1-1.1,1.7-1.1,2.7l0,1.1H12l-0.1-1c-0.2-1.3,0.3-2.7,1.4-3.9c0.8-1,1.3-1.7,1.3-2.5
		c0-0.8-0.5-1.3-1.5-1.3c-0.6,0-1.4,0.2-1.8,0.5l-0.5,0.4L10,1.6l0.3-0.2c0.8-0.6,2-0.9,3.3-0.9c2.7,0,3.9,1.8,3.9,3.5
		C17.5,5.6,16.7,6.7,15.6,7.9z"/>
</g>
<g>
	<path class="st0" d="M15.2,15.1c0,1-0.7,1.8-1.7,1.8c-1,0-1.7-0.8-1.7-1.8c0-1,0.7-1.8,1.7-1.8C14.5,13.3,15.2,14,15.2,15.1z"/>
</g>
<g>
	<path class="st0" d="M24.5,10.6c-0.3,0.9-0.9,1.4-1.7,1.9c-0.6,0.4-0.9,0.8-1,1.3l-0.2,0.7L20.1,14l0.1-0.6c0.1-0.8,0.6-1.5,1.5-2
		c0.7-0.5,1-0.8,1.1-1.2c0-0.2,0.2-0.6-0.6-0.9c-0.3-0.1-0.8-0.1-1,0l-0.4,0.2L20.6,8l0.3-0.1c0.5-0.2,1.3-0.2,2,0
		c0.7,0.2,1.2,0.6,1.5,1.1C24.6,9.5,24.7,10.1,24.5,10.6z"/>
</g>
<g>
	<path class="st0" d="M21.3,16.5c-0.2,0.5-0.6,0.8-1,0.8c-0.1,0-0.2,0-0.3,0c-0.3-0.1-0.5-0.3-0.6-0.5c-0.1-0.2-0.1-0.5-0.1-0.8
		c0.2-0.5,0.5-0.8,1-0.8c0.1,0,0.2,0,0.3,0c0.3,0.1,0.5,0.3,0.6,0.5C21.3,15.9,21.3,16.2,21.3,16.5z"/>
</g>
</svg>
