<svg width="92" height="57" viewBox="0 0 92 57" fill="none" xmlns="http://www.w3.org/2000/svg">
<rect y="34" width="31" height="13" rx="1" fill="#BFBFBF"/>
<ellipse cx="15.2643" cy="11.3069" rx="11.8722" ry="11.3069" fill="#BFBFBF"/>
<rect y="20.3524" width="29.3979" height="24.8752" rx="7" fill="#BFBFBF"/>
<ellipse cx="37.7474" cy="19.483" rx="11.8722" ry="11.3069" fill="#262626"/>
<rect x="22.483" y="28.5285" width="29.3979" height="24.8752" rx="7" fill="#262626"/>
<rect x="22.483" y="39.8354" width="29.3979" height="13.5683" rx="1" fill="#262626"/>
<ellipse cx="77.4523" cy="15.8296" rx="11.8722" ry="11.3069" fill="#BFBFBF"/>
<rect x="62.188" y="24.8751" width="29.3979" height="24.8752" rx="7" fill="#BFBFBF"/>
<rect x="62.188" y="36.1819" width="29.3979" height="13.5683" rx="1" fill="#BFBFBF"/>
<ellipse cx="51.4463" cy="21.483" rx="11.8722" ry="11.3069" fill="#262626"/>
<rect x="36.182" y="30.5285" width="29.3979" height="24.8752" rx="7" fill="#262626"/>
<rect x="36.182" y="41.8354" width="29.3979" height="13.5683" rx="1" fill="#262626"/>
<rect x="29.3979" y="31.6591" width="29.3979" height="24.8752" rx="7" fill="#BFBFBF"/>
<ellipse cx="44.6623" cy="22.6137" rx="11.8722" ry="11.3069" fill="#BFBFBF"/>
<rect x="29.3979" y="42.966" width="29.3979" height="13.5683" rx="1" fill="#BFBFBF"/>
</svg>
