<svg width="110" height="86" viewBox="0 0 110 86" fill="none" xmlns="http://www.w3.org/2000/svg">
<path d="M39.9596 25.407C41.3337 25.341 42.6742 25.844 43.6657 26.7976L72.3037 54.3418C74.294 56.256 74.3556 59.4213 72.4414 61.4115L62.9046 71.327C60.9904 73.3172 57.8251 73.3789 55.8349 71.4646L27.31 44.0292C26.2528 43.0124 25.6954 41.5826 25.7855 40.1185L26.376 30.5188C26.5326 27.9736 28.5794 25.954 31.1265 25.8316L39.9596 25.407Z" fill="#262626"/>
<circle cx="33.4272" cy="33.4316" r="1.87558" transform="rotate(43.8847 33.4272 33.4316)" fill="#262626"/>
<path d="M46.752 45.0871C46.9248 45.3545 47.0881 45.6317 47.242 45.9188C47.4024 46.2122 47.5209 46.5032 47.5974 46.7918C47.7457 47.4529 47.5701 48.0364 47.0707 48.5425C46.6537 48.9761 46.1354 49.1731 45.5158 49.1336C44.8896 49.0878 44.2749 48.8064 43.6718 48.2896L43.0653 48.9202C43.0147 48.9728 42.954 48.9965 42.8829 48.9915C42.8185 48.9927 42.7567 48.9649 42.6976 48.9081C42.5794 48.7943 42.5804 48.6815 42.7007 48.5696L43.3072 47.9389C42.7216 47.3251 42.27 46.6441 41.9524 45.8961C41.8645 45.6851 41.8742 45.5173 41.9813 45.3927C42.0951 45.2745 42.2131 45.2109 42.3354 45.2021C42.4643 45.1996 42.5648 45.2331 42.6371 45.3026C42.7159 45.3784 42.7891 45.493 42.8565 45.6464C43.0732 46.1837 43.4446 46.7179 43.9707 47.2492L45.743 45.4065C45.2968 44.6739 45.0315 44.1279 44.9472 43.7685C44.8628 43.4092 44.8501 43.0871 44.909 42.8024C44.968 42.5176 45.1143 42.2536 45.3481 42.0106C45.5819 41.7675 45.8298 41.5887 46.0918 41.474C46.3605 41.3656 46.6496 41.3148 46.9591 41.3217C47.6106 41.3413 48.2477 41.6189 48.8705 42.1547L49.4771 41.5241C49.5276 41.4715 49.5818 41.4415 49.6397 41.4339C49.7105 41.4261 49.7721 41.4474 49.8247 41.498C49.8772 41.5485 49.9042 41.6125 49.9058 41.6898C49.9136 41.7605 49.8922 41.8222 49.8417 41.8748L49.2446 42.4955C49.7643 43.0334 50.1553 43.5801 50.4175 44.1358C50.518 44.3337 50.4893 44.5148 50.3314 44.679C50.2556 44.7578 50.1533 44.8049 50.0247 44.8203C49.9027 44.842 49.8088 44.8213 49.7431 44.7581C49.6774 44.6949 49.6075 44.5835 49.5335 44.4238C49.3188 43.9896 49.0077 43.5702 48.6001 43.1656L46.752 45.0871ZM46.172 42.6134C45.8309 42.9681 45.8178 43.4551 46.1328 44.0742C46.2331 44.2592 46.3464 44.4504 46.4727 44.6478L48.2166 42.8347C47.8434 42.5389 47.4724 42.3592 47.1038 42.2955C46.7417 42.2381 46.4311 42.344 46.172 42.6134ZM44.3353 47.5998C44.925 48.0912 45.4504 48.2614 45.9116 48.1106C46.0845 48.0492 46.2341 47.9529 46.3605 47.8215C46.4931 47.6835 46.571 47.5434 46.594 47.4011C46.617 47.2589 46.6043 47.1012 46.5558 46.9281C46.4866 46.6845 46.3087 46.3237 46.0222 45.8458L44.3353 47.5998ZM50.5599 53.4349C50.6584 53.5297 50.7058 53.6448 50.702 53.7803C50.711 53.9155 50.6682 54.0323 50.5734 54.1309C50.485 54.2228 50.373 54.2669 50.2376 54.2631C50.1087 54.2656 49.995 54.2195 49.8964 54.1247L47.4034 51.7269C47.3115 51.6384 47.2609 51.5266 47.2519 51.3914C47.2493 51.2626 47.2923 51.1521 47.3808 51.0602C47.4692 50.9682 47.5811 50.9177 47.7162 50.9086C47.8514 50.8995 47.9683 50.9424 48.0668 51.0371L49.0227 51.9565L52.9558 47.8671L51.7494 47.4845C51.7105 47.4724 51.6683 47.4571 51.6228 47.4386C51.5902 47.4199 51.5378 47.3758 51.4655 47.3063C51.3998 47.2431 51.3625 47.1504 51.3537 47.0281C51.3512 46.8992 51.4131 46.7691 51.5395 46.6377C51.6659 46.5063 51.8296 46.4741 52.0308 46.5411L53.6841 47.031C53.7942 47.0611 53.8887 47.1141 53.9676 47.1899L54.1351 47.351C54.2402 47.4521 54.291 47.5768 54.2874 47.7252C54.2967 47.8732 54.2509 47.9998 54.1498 48.1049L49.7617 52.6673L50.5599 53.4349ZM59.0787 51.9541C59.44 52.3016 59.689 52.6738 59.8256 53.0708C59.9689 53.4741 60.0028 53.8925 59.9274 54.3259C59.8088 55.1855 59.323 56.0588 58.47 56.9456C57.6107 57.839 56.7539 58.3617 55.8995 58.5137C55.0001 58.6731 54.199 58.4147 53.4961 57.7386C52.7932 57.0626 52.5038 56.2721 52.628 55.3672C52.7467 54.5076 53.2356 53.631 54.0949 52.7376C54.9479 51.8508 55.8016 51.3313 56.656 51.1793C57.5616 51.0134 58.3692 51.2717 59.0787 51.9541ZM54.1599 57.0682C54.6329 57.5231 55.1836 57.6671 55.8121 57.5002C56.4408 57.3461 57.0837 56.9275 57.7408 56.2443C58.3979 55.5611 58.7912 54.9023 58.9207 54.2681C59.0565 53.6273 58.8814 53.0795 58.3956 52.6249C57.9226 52.17 57.3719 52.026 56.7434 52.1929C56.1212 52.3533 55.4847 52.7718 54.834 53.4484C54.1705 54.1382 53.774 54.7938 53.6442 55.4151C53.515 56.0622 53.6869 56.6133 54.1599 57.0682Z" fill="#262626"/>
<path d="M65.8039 11.784C67.1779 11.718 68.5185 12.221 69.51 13.1746L98.148 40.7188C100.138 42.6331 100.2 45.7983 98.2856 47.7885L88.7489 57.704C86.8346 59.6943 83.6694 59.7559 81.6791 57.8416L53.1542 30.4062C52.097 29.3894 51.5397 27.9596 51.6297 26.4956L52.2203 16.8959C52.3768 14.3507 54.4237 12.3311 56.9708 12.2086L65.8039 11.784Z" fill="#262626"/>
<circle cx="59.2717" cy="19.8086" r="1.87558" transform="rotate(43.8847 59.2717 19.8086)" fill="#262626"/>
<path d="M72.5965 31.4641C72.7693 31.7315 72.9326 32.0087 73.0865 32.2958C73.2469 32.5892 73.3653 32.8802 73.4419 33.1688C73.5901 33.8299 73.4145 34.4134 72.9151 34.9195C72.4981 35.3531 71.9798 35.5501 71.3602 35.5106C70.734 35.4648 70.1194 35.1835 69.5163 34.6666L68.9097 35.2973C68.8592 35.3498 68.7984 35.3736 68.7274 35.3685C68.663 35.3697 68.6012 35.3419 68.5421 35.2851C68.4238 35.1713 68.4248 35.0585 68.5451 34.9466L69.1517 34.3159C68.566 33.7021 68.1144 33.0211 67.7969 32.2731C67.709 32.0621 67.7186 31.8943 67.8258 31.7697C67.9395 31.6515 68.0575 31.5879 68.1798 31.5791C68.3087 31.5766 68.4093 31.6101 68.4815 31.6796C68.5604 31.7554 68.6335 31.87 68.701 32.0234C68.9177 32.5607 69.2891 33.0949 69.8151 33.6262L71.5874 31.7835C71.1412 31.0509 70.876 30.5049 70.7916 30.1456C70.7073 29.7862 70.6946 29.4641 70.7535 29.1794C70.8124 28.8946 70.9588 28.6307 71.1925 28.3876C71.4263 28.1445 71.6742 27.9657 71.9363 27.851C72.2049 27.7426 72.494 27.6919 72.8036 27.6987C73.455 27.7183 74.0921 27.9959 74.715 28.5318L75.3215 27.9011C75.3721 27.8486 75.4263 27.8185 75.4841 27.8109C75.5549 27.8031 75.6166 27.8245 75.6691 27.875C75.7217 27.9255 75.7487 27.9895 75.7502 28.0668C75.758 28.1376 75.7367 28.1992 75.6861 28.2518L75.089 28.8726C75.6088 29.4104 75.9997 29.9571 76.262 30.5128C76.3625 30.7107 76.3338 30.8918 76.1758 31.056C76.1 31.1348 75.9978 31.182 75.8692 31.1973C75.7471 31.2191 75.6532 31.1983 75.5875 31.1351C75.5219 31.072 75.452 30.9605 75.378 30.8008C75.1632 30.3666 74.8521 29.9472 74.4446 29.5426L72.5965 31.4641ZM72.0165 28.9904C71.6753 29.3451 71.6622 29.8321 71.9772 30.4512C72.0775 30.6362 72.1908 30.8274 72.3172 31.0248L74.061 29.2117C73.6878 28.916 73.3169 28.7362 72.9482 28.6725C72.5861 28.6151 72.2755 28.7211 72.0165 28.9904ZM70.1797 33.9768C70.7694 34.4682 71.2949 34.6384 71.7561 34.4876C71.9289 34.4263 72.0785 34.3299 72.2049 34.1985C72.3376 34.0605 72.4154 33.9204 72.4385 33.7782C72.4615 33.6359 72.4487 33.4782 72.4002 33.3051C72.331 33.0615 72.1532 32.7008 71.8667 32.2229L70.1797 33.9768ZM76.4043 39.812C76.5029 39.9067 76.5502 40.0218 76.5464 40.1573C76.5555 40.2925 76.5126 40.4093 76.4179 40.5079C76.3294 40.5998 76.2175 40.6439 76.082 40.6401C75.9531 40.6426 75.8394 40.5965 75.7409 40.5017L73.2479 38.1039C73.1559 38.0155 73.1054 37.9036 73.0963 37.7684C73.0938 37.6396 73.1368 37.5291 73.2252 37.4372C73.3137 37.3452 73.4255 37.2947 73.5607 37.2856C73.6959 37.2765 73.8128 37.3194 73.9113 37.4142L74.8671 38.3335L78.8003 34.2441L77.5938 33.8615C77.5549 33.8494 77.5127 33.8341 77.4672 33.8156C77.4346 33.7969 77.3822 33.7528 77.3099 33.6833C77.2443 33.6201 77.207 33.5274 77.1982 33.4051C77.1957 33.2762 77.2576 33.1461 77.384 33.0147C77.5103 32.8833 77.6741 32.8511 77.8752 32.9181L79.5285 33.4081C79.6387 33.4381 79.7332 33.4911 79.812 33.5669L79.9795 33.728C80.0847 33.8291 80.1354 33.9538 80.1319 34.1022C80.1412 34.2503 80.0953 34.3768 79.9942 34.482L75.6062 39.0443L76.4043 39.812ZM84.9232 38.3311C85.2845 38.6786 85.5334 39.0508 85.6701 39.4478C85.8133 39.8512 85.8472 40.2695 85.7719 40.7029C85.6532 41.5625 85.1674 42.4358 84.3145 43.3226C83.4552 44.216 82.5983 44.7387 81.744 44.8907C80.8446 45.0501 80.0435 44.7917 79.3405 44.1156C78.6376 43.4396 78.3483 42.6491 78.4725 41.7442C78.5911 40.8846 79.0801 40.008 79.9394 39.1146C80.7923 38.2278 81.646 37.7084 82.5004 37.5564C83.4061 37.3905 84.2137 37.6487 84.9232 38.3311ZM80.0043 43.4452C80.4773 43.9001 81.0281 44.0441 81.6565 43.8772C82.2853 43.7231 82.9282 43.3045 83.5853 42.6213C84.2424 41.9381 84.6357 41.2794 84.7651 40.6451C84.9009 40.0043 84.7259 39.4566 84.24 39.0019C83.767 38.547 83.2163 38.403 82.5878 38.5699C81.9657 38.7303 81.3292 39.1488 80.6784 39.8254C80.015 40.5152 79.6184 41.1708 79.4887 41.7921C79.3595 42.4393 79.5314 42.9903 80.0043 43.4452Z" fill="#262626"/>
<path d="M22.6703 35.9535C24.0443 35.8874 25.3849 36.3904 26.3764 37.344L55.0144 64.8882C57.0047 66.8025 57.0663 69.9677 55.152 71.958L45.6153 81.8734C43.701 83.8637 40.5358 83.9253 38.5456 82.0111L10.0207 54.5757C8.96346 53.5588 8.40609 52.1291 8.49615 50.665L9.08668 41.0653C9.24325 38.5201 11.2901 36.5005 13.8372 36.3781L22.6703 35.9535Z" fill="#BFBFBF"/>
<circle cx="16.1381" cy="43.978" r="1.87558" transform="rotate(43.8847 16.1381 43.978)" fill="#262626"/>
<path d="M29.4163 57.708C29.552 57.918 29.6804 58.1359 29.8012 58.3614C29.9273 58.592 30.0204 58.8206 30.0805 59.0473C30.197 59.5668 30.059 60.0253 29.6666 60.4229C29.339 60.7636 28.9317 60.9184 28.4449 60.8873C27.9529 60.8513 27.47 60.6303 26.9961 60.2242L26.5195 60.7197C26.4798 60.761 26.4321 60.7797 26.3763 60.7757C26.3256 60.7767 26.2771 60.7548 26.2306 60.7101C26.1377 60.6208 26.1385 60.5321 26.2331 60.4442L26.7096 59.9487C26.2495 59.4663 25.8947 58.9313 25.6452 58.3436C25.5761 58.1778 25.5837 58.0459 25.6679 57.9481C25.7572 57.8552 25.8499 57.8052 25.946 57.7983C26.0473 57.7963 26.1263 57.8227 26.1831 57.8773C26.245 57.9368 26.3025 58.0269 26.3555 58.1474C26.5258 58.5695 26.8176 58.9893 27.2309 59.4067L28.6234 57.9589C28.2729 57.3833 28.0645 56.9543 27.9982 56.6719C27.9319 56.3896 27.9219 56.1365 27.9682 55.9128C28.0145 55.689 28.1295 55.4817 28.3132 55.2907C28.4968 55.0997 28.6916 54.9592 28.8975 54.8691C29.1086 54.7839 29.3358 54.744 29.579 54.7494C30.0908 54.7648 30.5914 54.983 31.0808 55.4039L31.5574 54.9084C31.5971 54.8671 31.6397 54.8435 31.6851 54.8376C31.7407 54.8314 31.7892 54.8482 31.8305 54.8879C31.8718 54.9276 31.893 54.9779 31.8942 55.0386C31.9003 55.0942 31.8836 55.1427 31.8438 55.184L31.3747 55.6717C31.7831 56.0943 32.0902 56.5239 32.2963 56.9605C32.3753 57.116 32.3527 57.2583 32.2286 57.3873C32.169 57.4492 32.0887 57.4862 31.9877 57.4983C31.8918 57.5154 31.818 57.4991 31.7664 57.4495C31.7148 57.3998 31.6599 57.3123 31.6017 57.1868C31.433 56.8456 31.1885 56.5161 30.8683 56.1982L29.4163 57.708ZM28.9606 55.7643C28.6925 56.043 28.6822 56.4256 28.9297 56.9121C29.0085 57.0575 29.0976 57.2077 29.1968 57.3627L30.567 55.9382C30.2738 55.7058 29.9823 55.5646 29.6926 55.5145C29.4081 55.4694 29.1641 55.5527 28.9606 55.7643ZM27.5174 59.6822C27.9807 60.0683 28.3936 60.2021 28.756 60.0836C28.8918 60.0353 29.0093 59.9596 29.1086 59.8564C29.2129 59.748 29.274 59.6379 29.2921 59.5261C29.3102 59.4143 29.3002 59.2905 29.2621 59.1544C29.2077 58.963 29.068 58.6796 28.8429 58.3041L27.5174 59.6822ZM32.4081 64.267C32.4856 64.3414 32.5228 64.4319 32.5198 64.5383C32.5269 64.6445 32.4932 64.7363 32.4188 64.8138C32.3493 64.886 32.2613 64.9207 32.1549 64.9177C32.0536 64.9196 31.9643 64.8834 31.8869 64.8089L29.9281 62.9249C29.8558 62.8554 29.8161 62.7676 29.809 62.6614C29.807 62.5601 29.8408 62.4733 29.9103 62.4011C29.9798 62.3288 30.0676 62.2891 30.1739 62.282C30.2801 62.2748 30.3719 62.3085 30.4493 62.383L31.2003 63.1053L34.2907 59.8922L33.3427 59.5916C33.3122 59.5821 33.279 59.5701 33.2433 59.5556C33.2177 59.5409 33.1765 59.5062 33.1197 59.4516C33.0681 59.402 33.0388 59.3291 33.0319 59.233C33.0299 59.1317 33.0786 59.0295 33.1778 58.9263C33.2771 58.823 33.4058 58.7977 33.5638 58.8504L34.8629 59.2353C34.9494 59.259 35.0237 59.3006 35.0856 59.3602L35.2172 59.4867C35.2998 59.5662 35.3397 59.6642 35.3369 59.7807C35.3443 59.8971 35.3082 59.9965 35.2288 60.0791L31.781 63.6638L32.4081 64.267ZM39.1015 63.1034C39.3854 63.3765 39.581 63.6689 39.6884 63.9809C39.8009 64.2978 39.8276 64.6265 39.7684 64.967C39.6752 65.6424 39.2934 66.3285 38.6233 67.0253C37.9481 67.7273 37.2749 68.138 36.6036 68.2574C35.8969 68.3826 35.2675 68.1796 34.7152 67.6484C34.1629 67.1172 33.9355 66.4962 34.0331 65.7852C34.1263 65.1097 34.5105 64.421 35.1857 63.7191C35.8559 63.0223 36.5266 62.6141 37.1979 62.4947C37.9095 62.3644 38.5441 62.5673 39.1015 63.1034ZM35.2367 67.1217C35.6084 67.4791 36.0411 67.5922 36.5349 67.4611C37.0289 67.34 37.534 67.0111 38.0503 66.4743C38.5666 65.9375 38.8756 65.4199 38.9774 64.9216C39.084 64.4181 38.9465 63.9877 38.5648 63.6305C38.1931 63.273 37.7604 63.1599 37.2666 63.2911C36.7778 63.4171 36.2777 63.7459 35.7664 64.2776C35.2451 64.8195 34.9335 65.3346 34.8316 65.8228C34.73 66.3313 34.8651 66.7642 35.2367 67.1217Z" fill="#262626"/>
<path d="M47.4767 21.9498C48.8507 21.8838 50.1913 22.3868 51.1828 23.3404L79.8208 50.8846C81.811 52.7988 81.8727 55.9641 79.9584 57.9543L70.4217 67.8698C68.5074 69.86 65.3422 69.9217 63.3519 68.0074L34.8271 40.572C33.7699 39.5552 33.2125 38.1254 33.3025 36.6613L33.8931 27.0616C34.0496 24.5164 36.0965 22.4968 38.6436 22.3744L47.4767 21.9498Z" fill="#BFBFBF"/>
<circle cx="40.9445" cy="29.9743" r="1.87558" transform="rotate(43.8847 40.9445 29.9743)" fill="#262626"/>
<path d="M54.5298 42.7395C54.6779 42.9687 54.8179 43.2063 54.9498 43.4524C55.0873 43.7039 55.1889 43.9533 55.2544 44.2006C55.3815 44.7673 55.231 45.2675 54.803 45.7013C54.4455 46.0729 54.0013 46.2418 53.4702 46.2079C52.9335 46.1686 52.4066 45.9275 51.8897 45.4845L51.3698 46.025C51.3264 46.0701 51.2743 46.0904 51.2135 46.0861C51.1582 46.0872 51.1053 46.0633 51.0546 46.0146C50.9533 45.9171 50.9541 45.8204 51.0572 45.7245L51.5772 45.1839C51.0752 44.6577 50.6881 44.0741 50.4159 43.4329C50.3405 43.252 50.3488 43.1082 50.4407 43.0014C50.5381 42.9001 50.6393 42.8456 50.7441 42.8381C50.8546 42.8359 50.9408 42.8646 51.0027 42.9242C51.0703 42.9892 51.133 43.0874 51.1908 43.2189C51.3766 43.6794 51.6949 44.1373 52.1458 44.5927L53.6649 43.0133C53.2825 42.3853 53.0551 41.9173 52.9828 41.6093C52.9105 41.3013 52.8996 41.0252 52.9501 40.7811C53.0006 40.537 53.1261 40.3108 53.3264 40.1025C53.5268 39.8941 53.7393 39.7408 53.964 39.6425C54.1942 39.5496 54.442 39.5061 54.7073 39.512C55.2657 39.5288 55.8118 39.7668 56.3457 40.226L56.8656 39.6855C56.9089 39.6404 56.9554 39.6147 57.005 39.6082C57.0656 39.6015 57.1185 39.6198 57.1635 39.6631C57.2086 39.7064 57.2317 39.7612 57.233 39.8275C57.2397 39.8882 57.2214 39.941 57.1781 39.986L56.6663 40.5182C57.1118 40.9791 57.4469 41.4478 57.6717 41.9241C57.7578 42.0937 57.7332 42.2489 57.5978 42.3897C57.5329 42.4572 57.4452 42.4976 57.335 42.5108C57.2304 42.5294 57.1499 42.5117 57.0936 42.4575C57.0373 42.4034 56.9774 42.3078 56.914 42.1709C56.7299 41.7988 56.4632 41.4393 56.1139 41.0925L54.5298 42.7395ZM54.0327 40.6192C53.7402 40.9232 53.729 41.3406 53.9991 41.8713C54.085 42.0299 54.1821 42.1937 54.2904 42.3629L55.7851 40.8088C55.4653 40.5554 55.1473 40.4013 54.8313 40.3467C54.5209 40.2975 54.2547 40.3883 54.0327 40.6192ZM52.4583 44.8933C52.9638 45.3144 53.4142 45.4603 53.8095 45.3311C53.9576 45.2785 54.0859 45.1958 54.1942 45.0832C54.3079 44.965 54.3747 44.8449 54.3944 44.723C54.4141 44.601 54.4032 44.4659 54.3616 44.3175C54.3023 44.1087 54.1499 43.7995 53.9043 43.3898L52.4583 44.8933ZM57.7937 49.8948C57.8781 49.976 57.9187 50.0747 57.9155 50.1908C57.9233 50.3067 57.8865 50.4068 57.8053 50.4913C57.7295 50.5701 57.6335 50.6079 57.5174 50.6046C57.407 50.6068 57.3095 50.5672 57.225 50.486L55.0882 48.4307C55.0093 48.3549 54.966 48.2591 54.9582 48.1432C54.9561 48.0327 54.9929 47.9381 55.0688 47.8593C55.1446 47.7804 55.2404 47.7371 55.3563 47.7293C55.4722 47.7216 55.5724 47.7583 55.6568 47.8395L56.4761 48.6275L59.8474 45.1224L58.8133 44.7944C58.7799 44.784 58.7437 44.7709 58.7048 44.7551C58.6768 44.739 58.6319 44.7012 58.5699 44.6417C58.5136 44.5875 58.4817 44.508 58.4741 44.4032C58.472 44.2927 58.5251 44.1812 58.6334 44.0686C58.7417 43.9559 58.882 43.9283 59.0544 43.9858L60.4716 44.4057C60.566 44.4315 60.647 44.4769 60.7146 44.5419L60.8582 44.68C60.9483 44.7666 60.9918 44.8735 60.9887 45.0007C60.9967 45.1276 60.9574 45.2361 60.8707 45.3262L57.1095 49.2368L57.7937 49.8948ZM62.043 49.7706C62.5762 49.9149 63.0569 50.1984 63.4851 50.6211C63.9975 51.1139 64.2565 51.6448 64.262 52.2138C64.2615 52.7553 64.0393 53.2624 63.5954 53.7352C62.8914 54.4672 62.0793 54.6128 61.159 54.1722C60.8467 54.0235 60.5272 53.7922 60.2007 53.478C59.6376 52.9365 59.2722 52.3303 59.1044 51.6595C59.0685 51.5165 59.0938 51.4 59.1805 51.3099C59.2725 51.2142 59.3709 51.157 59.4755 51.1384C59.5857 51.1252 59.6746 51.1511 59.7422 51.2161C59.8098 51.2811 59.8671 51.3849 59.914 51.5277C60.0725 52.0053 60.3403 52.42 60.7173 52.7718C61.3761 53.4054 61.9553 53.6373 62.4548 53.4673C62.6359 53.403 62.8186 53.2807 63.0029 53.1003C63.2737 52.8187 63.3946 52.5014 63.3656 52.1484C63.3367 51.7953 63.1786 51.4807 62.8914 51.2045C62.4635 50.7929 61.9859 50.5287 61.4587 50.4119C61.3032 50.3707 61.1776 50.3041 61.0819 50.212C60.9972 50.1197 60.9423 49.9965 60.9172 49.8423C60.9032 49.6878 60.9584 49.5458 61.083 49.4163C61.1426 49.3544 61.1968 49.3036 61.2458 49.264L63.3292 47.7233C63.4434 47.6271 63.564 47.5806 63.6912 47.5836C63.8183 47.5867 63.9297 47.6343 64.0255 47.7263L66.2468 49.8628C66.3256 49.9386 66.3662 50.0373 66.3686 50.1588C66.3764 50.2747 66.3424 50.372 66.2665 50.4509C66.1907 50.5297 66.0921 50.5703 65.9705 50.5727C65.8601 50.5748 65.7626 50.5353 65.6782 50.454L63.6764 48.5288L62.043 49.7706Z" fill="#262626"/>
<path d="M73.3213 8.32658C74.6953 8.26054 76.0359 8.76353 77.0274 9.71713L105.665 37.2614C107.656 39.1756 107.717 42.3408 105.803 44.3311L96.2663 54.2465C94.352 56.2368 91.1868 56.2984 89.1966 54.3842L60.6717 26.9488C59.6145 25.9319 59.0571 24.5022 59.1472 23.0381L59.7377 13.4384C59.8942 10.8932 61.9411 8.87359 64.4882 8.75116L73.3213 8.32658Z" fill="#BFBFBF"/>
<circle cx="66.7889" cy="16.3512" r="1.87558" transform="rotate(43.8847 66.7889 16.3512)" fill="#262626"/>
<path d="M80.2439 28.5615C80.4044 28.8098 80.5561 29.0672 80.6989 29.3338C80.8479 29.6062 80.9579 29.8764 81.029 30.1444C81.1666 30.7583 81.0036 31.3002 80.5399 31.7701C80.1526 32.1727 79.6714 32.3556 79.096 32.319C78.5146 32.2764 77.9438 32.0152 77.3838 31.5352L76.8206 32.1208C76.7736 32.1696 76.7172 32.1917 76.6512 32.187C76.5914 32.1881 76.534 32.1623 76.4791 32.1095C76.3693 32.0039 76.3703 31.8991 76.482 31.7952L77.0452 31.2096C76.5014 30.6396 76.0821 30.0073 75.7872 29.3127C75.7056 29.1167 75.7145 28.9609 75.814 28.8453C75.9196 28.7355 76.0292 28.6765 76.1428 28.6683C76.2625 28.6659 76.3558 28.697 76.4229 28.7616C76.4961 28.832 76.5641 28.9384 76.6267 29.0808C76.8279 29.5797 77.1728 30.0758 77.6613 30.5691L79.307 28.8581C78.8927 28.1778 78.6464 27.6708 78.568 27.3371C78.4897 27.0034 78.4779 26.7044 78.5326 26.4399C78.5873 26.1755 78.7232 25.9304 78.9403 25.7047C79.1574 25.479 79.3876 25.3129 79.6309 25.2064C79.8804 25.1058 80.1488 25.0587 80.4363 25.0651C81.0412 25.0832 81.6328 25.341 82.2111 25.8386L82.7744 25.253C82.8213 25.2042 82.8716 25.1763 82.9254 25.1692C82.9911 25.162 83.0483 25.1818 83.0971 25.2287C83.1459 25.2757 83.171 25.335 83.1724 25.4068C83.1797 25.4725 83.1598 25.5298 83.1129 25.5786L82.5585 26.155C83.0411 26.6544 83.4041 27.1621 83.6476 27.6782C83.741 27.8619 83.7143 28.03 83.5676 28.1825C83.4972 28.2557 83.4023 28.2995 83.2829 28.3138C83.1695 28.3339 83.0824 28.3147 83.0214 28.256C82.9604 28.1973 82.8955 28.0939 82.8268 27.9456C82.6274 27.5424 82.3385 27.153 81.96 26.7772L80.2439 28.5615ZM79.7054 26.2645C79.3886 26.5939 79.3764 27.046 79.669 27.6209C79.7621 27.7927 79.8673 27.9702 79.9846 28.1535L81.6039 26.4699C81.2574 26.1953 80.9129 26.0285 80.5706 25.9693C80.2343 25.916 79.9459 26.0144 79.7054 26.2645ZM77.9998 30.8947C78.5474 31.351 79.0353 31.5091 79.4636 31.369C79.6241 31.312 79.763 31.2225 79.8804 31.1005C80.0036 30.9724 80.0759 30.8423 80.0972 30.7102C80.1186 30.5781 80.1068 30.4317 80.0617 30.271C79.9975 30.0448 79.8323 29.7098 79.5663 29.266L77.9998 30.8947ZM83.9171 36.4451C84.0086 36.5331 84.0525 36.6399 84.049 36.7657C84.0513 36.8854 84.0085 36.991 83.9205 37.0825C83.8384 37.1679 83.7374 37.2117 83.6178 37.2141C83.4981 37.2164 83.3925 37.1736 83.301 37.0856L80.4096 34.3046C80.2937 34.1931 80.2344 34.0656 80.2316 33.922C80.2288 33.7784 80.2802 33.6517 80.3858 33.5419C80.6381 33.2796 80.9401 33.1121 81.2918 33.0394C81.6436 32.9667 82.0143 32.9475 82.4041 32.9818C82.7997 33.01 83.2049 33.071 83.6197 33.1647C84.0346 33.2583 84.4281 33.3315 84.8002 33.3841C85.1785 33.4426 85.5229 33.4568 85.8336 33.4268C86.1443 33.3968 86.3818 33.2964 86.546 33.1256C86.7103 32.9548 86.8239 32.794 86.8868 32.6431C86.9556 32.4862 86.9823 32.324 86.9671 32.1567C86.9418 31.7801 86.7218 31.3923 86.307 30.9934C85.8617 30.5651 85.3467 30.2459 84.762 30.0358C84.6897 30.0133 84.62 29.9697 84.5529 29.9052C84.4919 29.8465 84.4604 29.7633 84.4583 29.6556C84.4623 29.5538 84.5141 29.451 84.6139 29.3473C84.7136 29.2436 84.8447 29.2112 85.0071 29.2499C85.7598 29.4807 86.4411 29.8894 87.0511 30.4761C87.5391 30.9455 87.8098 31.4759 87.8632 32.0675C87.9289 32.6707 87.7446 33.1981 87.3104 33.6495C86.8763 34.1009 86.2251 34.3201 85.3569 34.307C84.9796 34.2964 84.5957 34.256 84.2053 34.1858C83.8268 34.1154 83.4544 34.0508 83.0882 33.9921C82.7278 33.9273 82.3916 33.8799 82.0798 33.8501C81.7679 33.8202 81.5111 33.8492 81.3093 33.9369L83.9171 36.4451ZM91.6902 34.9379C92.0257 35.2606 92.2569 35.6063 92.3837 35.9749C92.5167 36.3495 92.5482 36.7379 92.4783 37.1403C92.3681 37.9386 91.917 38.7495 91.125 39.573C90.327 40.4026 89.5314 40.8879 88.738 41.0291C87.9029 41.177 87.159 40.9371 86.5063 40.3093C85.8536 39.6816 85.5849 38.9476 85.7003 38.1073C85.8104 37.3091 86.2645 36.4951 87.0624 35.6655C87.8544 34.842 88.6471 34.3597 89.4405 34.2186C90.2815 34.0645 91.0314 34.3043 91.6902 34.9379ZM87.1227 39.6868C87.5619 40.1092 88.0733 40.2429 88.6569 40.0879C89.2407 39.9448 89.8377 39.5561 90.4479 38.9217C91.058 38.2873 91.4232 37.6756 91.5434 37.0867C91.6695 36.4917 91.507 35.983 91.0558 35.5608C90.6166 35.1384 90.1052 35.0047 89.5216 35.1597C88.9439 35.3087 88.3529 35.6973 87.7486 36.3256C87.1326 36.9661 86.7643 37.5748 86.6439 38.1518C86.5239 38.7527 86.6835 39.2644 87.1227 39.6868Z" fill="#262626"/>
</svg>
