<svg width="116" height="54" viewBox="0 0 116 54" fill="none" xmlns="http://www.w3.org/2000/svg">
<rect x="73.7643" y="20.5603" width="29.3979" height="24.8752" rx="7" fill="#BFBFBF"/>
<ellipse cx="89.0286" cy="11.5148" rx="11.8722" ry="11.3069" fill="#BFBFBF"/>
<rect x="73.7643" y="31.8672" width="29.3979" height="13.5683" rx="1" fill="#C4C4C4"/>
<rect x="47.7584" y="27.3445" width="29.3979" height="24.8752" rx="7" fill="#BFBFBF"/>
<ellipse cx="63.0227" cy="18.2989" rx="11.8722" ry="11.3069" fill="#BFBFBF"/>
<rect x="47.7584" y="38.6513" width="29.3979" height="13.5683" rx="1" fill="#BFBFBF"/>
<rect x="86.2019" y="27.3445" width="29.3979" height="24.8752" rx="7" fill="#BFBFBF"/>
<ellipse cx="101.466" cy="18.2989" rx="11.8722" ry="11.3069" fill="#BFBFBF"/>
<rect x="86.2019" y="38.6513" width="29.3979" height="13.5683" rx="1" fill="#BFBFBF"/>
<rect x="80.5484" y="27.3445" width="29.3979" height="24.8752" rx="7" fill="#262626"/>
<ellipse cx="95.8127" cy="18.2989" rx="11.8722" ry="11.3069" fill="#262626"/>
<rect x="80.5484" y="39.6513" width="29.3979" height="13.5683" rx="1" fill="#262626"/>
<rect x="53.4119" y="27.3445" width="29.3979" height="24.8752" rx="7" fill="#262626"/>
<ellipse cx="68.6762" cy="18.2989" rx="11.8722" ry="11.3069" fill="#262626"/>
<rect x="53.4119" y="39.6513" width="29.3979" height="13.5683" rx="1" fill="#262626"/>
<rect x="0.269287" y="27.3445" width="29.3979" height="24.8752" rx="7" fill="#BFBFBF"/>
<ellipse cx="15.5336" cy="18.299" rx="11.8722" ry="11.3069" fill="#BFBFBF"/>
<rect x="0.269287" y="38.6513" width="29.3979" height="13.5683" rx="1" fill="#BFBFBF"/>
<path d="M39.1498 39.5619L39.1761 39.5385L39.2011 39.5136C39.6196 39.095 39.8074 38.5613 39.8074 38.0137C39.8074 37.4884 39.643 36.9198 39.1766 36.4897C38.7619 36.088 38.2382 35.9074 37.7012 35.9074H35.1062V33.2842C35.1062 32.7365 34.9184 32.2028 34.4999 31.7843C34.0814 31.3658 33.5476 31.1779 33 31.1779C32.4524 31.1779 31.9186 31.3658 31.5001 31.7843C31.0816 32.2028 30.8937 32.7365 30.8937 33.2842V35.9074H28.2988C27.7512 35.9074 27.2175 36.0952 26.7989 36.5138L26.774 36.5387L26.7506 36.5651C26.373 36.9898 26.2209 37.5062 26.2209 38.0137C26.2209 38.5276 26.388 39.0261 26.7506 39.434L26.774 39.4603L26.7989 39.4852C27.2175 39.9038 27.7512 40.0916 28.2988 40.0916H30.8937V42.6865C30.8937 43.2342 31.0816 43.7679 31.5001 44.1864C31.9186 44.6049 32.4524 44.7928 33 44.7928C33.5476 44.7928 34.0814 44.6049 34.4999 44.1864C34.9184 43.7679 35.1062 43.2342 35.1062 42.6865V40.0916H37.7012C38.2086 40.0916 38.725 39.9395 39.1498 39.5619Z" fill="#BFBFBF" stroke="#262626" stroke-width="2.4"/>
</svg>
