<?xml version="1.0" encoding="utf-8"?>
<!-- Generator: Adobe Illustrator 23.1.0, SVG Export Plug-In . SVG Version: 6.00 Build 0)  -->
<svg version="1.1" id="Слой_1" xmlns="http://www.w3.org/2000/svg" xmlns:xlink="http://www.w3.org/1999/xlink" x="0px" y="0px"
	 viewBox="0 0 19 10" style="enable-background:new 0 0 19 10;" xml:space="preserve">
<style type="text/css">
	.st0{fill:#BFBFBF;}
	.st1{fill:#C4C4C4;}
	.st2{fill:#262626;}
	.st3{fill:#BFBFBF;stroke:#262626;stroke-width:0.42;}
</style>
<path class="st0" d="M13.1,4h2.4c0.6,0,1.1,0.5,1.1,1.1v1.7c0,0.6-0.5,1.1-1.1,1.1h-2.4C12.5,8,12,7.5,12,6.9V5.1
	C12,4.5,12.5,4,13.1,4z"/>
<ellipse class="st0" cx="14.4" cy="2.6" rx="1.9" ry="1.8"/>
<path class="st1" d="M12.2,5.8h4.3c0.1,0,0.2,0.1,0.2,0.2v1.8c0,0.1-0.1,0.2-0.2,0.2h-4.3C12.1,8,12,7.9,12,7.8V6
	C12,5.9,12.1,5.8,12.2,5.8z"/>
<path class="st0" d="M9,5.1h2.4c0.6,0,1.1,0.5,1.1,1.1v1.7C12.5,8.5,12,9,11.4,9H9C8.4,9,7.9,8.5,7.9,7.9V6.2C7.9,5.6,8.4,5.1,9,5.1
	z"/>
<ellipse class="st0" cx="10.3" cy="3.7" rx="1.9" ry="1.8"/>
<path class="st0" d="M8,6.9h4.3c0.1,0,0.2,0.1,0.2,0.2v1.8C12.5,9,12.5,9,12.4,9H8C8,9,7.9,9,7.9,8.9V7.1C7.9,7,8,6.9,8,6.9z"/>
<path class="st0" d="M15.1,5.1h2.4c0.6,0,1.1,0.5,1.1,1.1v1.7c0,0.6-0.5,1.1-1.1,1.1h-2.4C14.5,9,14,8.5,14,7.9V6.2
	C14,5.6,14.5,5.1,15.1,5.1z"/>
<ellipse class="st0" cx="16.4" cy="3.7" rx="1.9" ry="1.8"/>
<path class="st0" d="M14.1,6.9h4.3c0.1,0,0.2,0.1,0.2,0.2v1.8C18.6,9,18.5,9,18.4,9h-4.3C14,9,14,9,14,8.9V7.1C14,7,14,6.9,14.1,6.9
	z"/>
<path class="st2" d="M14.2,5.1h2.4c0.6,0,1.1,0.5,1.1,1.1v1.7c0,0.6-0.5,1.1-1.1,1.1h-2.4c-0.6,0-1.1-0.5-1.1-1.1V6.2
	C13.1,5.6,13.6,5.1,14.2,5.1z"/>
<ellipse class="st2" cx="15.5" cy="3.7" rx="1.9" ry="1.8"/>
<path class="st2" d="M13.2,7.1h4.3c0.1,0,0.2,0.1,0.2,0.2V9c0,0.1-0.1,0.2-0.2,0.2h-4.3c-0.1,0-0.2-0.1-0.2-0.2V7.2
	C13.1,7.1,13.1,7.1,13.2,7.1z"/>
<path class="st2" d="M9.9,5.1h2.4c0.6,0,1.1,0.5,1.1,1.1v1.7c0,0.6-0.5,1.1-1.1,1.1H9.9C9.3,9,8.8,8.5,8.8,7.9V6.2
	C8.8,5.6,9.3,5.1,9.9,5.1z"/>
<ellipse class="st2" cx="11.2" cy="3.7" rx="1.9" ry="1.8"/>
<path class="st2" d="M8.9,7.1h4.3c0.1,0,0.2,0.1,0.2,0.2V9c0,0.1-0.1,0.2-0.2,0.2H8.9C8.9,9.2,8.8,9.1,8.8,9V7.2
	C8.8,7.1,8.9,7.1,8.9,7.1z"/>
<path class="st0" d="M1.5,5.1h2.4C4.5,5.1,5,5.6,5,6.2v1.7C5,8.5,4.5,9,3.9,9H1.5C0.9,9,0.4,8.5,0.4,7.9V6.2
	C0.4,5.6,0.9,5.1,1.5,5.1z"/>
<ellipse class="st0" cx="2.8" cy="3.7" rx="1.9" ry="1.8"/>
<path class="st0" d="M0.6,6.9h4.3C5,6.9,5,7,5,7.1v1.8C5,9,5,9,4.9,9H0.6C0.5,9,0.4,9,0.4,8.9V7.1C0.4,7,0.5,6.9,0.6,6.9z"/>
<path class="st3" d="M6.5,7L6.5,7L6.5,7C6.6,7,6.6,6.9,6.6,6.8c0-0.1,0-0.2-0.1-0.2C6.5,6.5,6.4,6.5,6.3,6.5H5.9V6
	c0-0.1,0-0.2-0.1-0.2C5.7,5.7,5.6,5.7,5.6,5.7s-0.2,0-0.2,0.1C5.3,5.9,5.2,6,5.2,6v0.4H4.8c-0.1,0-0.2,0-0.2,0.1l0,0l0,0
	C4.5,6.6,4.5,6.7,4.5,6.8c0,0.1,0,0.2,0.1,0.2l0,0l0,0c0.1,0.1,0.2,0.1,0.2,0.1h0.4v0.4c0,0.1,0,0.2,0.1,0.2
	c0.1,0.1,0.2,0.1,0.2,0.1s0.2,0,0.2-0.1c0.1-0.1,0.1-0.2,0.1-0.2V7.1h0.4C6.4,7.1,6.5,7.1,6.5,7z"/>
</svg>
