<svg id="Слой_1" data-name="Слой 1" xmlns="http://www.w3.org/2000/svg" viewBox="0 0 22.32 21.64"><defs><style>.cls-1{fill:#c4c4c4;}.cls-2{fill:#262626;}.cls-3{fill:#bfbfbf;}</style></defs><title>language</title><path class="cls-1" d="M6.69,8.33h2.1A14.86,14.86,0,0,1,10,5.57,10.86,10.86,0,0,0,6.69,8.33Zm4.07,0h3.88v-4C13.06,4.68,11.69,6.18,10.76,8.33Zm3.88-4.12v.07a3.53,3.53,0,0,1,.55-.1A5.07,5.07,0,0,0,14.64,4.21Zm1.72.07V8.33h3.88C19.31,6.18,17.94,4.68,16.36,4.28ZM10.16,10a16.84,16.84,0,0,0-.67,4.17h5.15V10Zm.6,11.67c.93,2.15,2.3,3.65,3.88,4v-4Zm3.88,4v.08l.55,0A3.53,3.53,0,0,1,14.64,25.72Zm1.17.1.55,0v-.08A3.53,3.53,0,0,1,15.81,25.82Zm.55-4.15v4c1.58-.4,2.95-1.9,3.88-4Zm0-5.84V20h4.48a16.84,16.84,0,0,0,.67-4.17Zm0,0V20h4.48a16.84,16.84,0,0,0,.67-4.17Zm0,0V20h4.48a16.84,16.84,0,0,0,.67-4.17Zm6.87,0A21.1,21.1,0,0,1,22.68,20h2.75a10.57,10.57,0,0,0,1.23-4.17Zm-6.87,0V20h4.48a16.84,16.84,0,0,0,.67-4.17ZM20.84,10H16.36v4.17h5.15A16.84,16.84,0,0,0,20.84,10Zm0,0H16.36v4.17h5.15A16.84,16.84,0,0,0,20.84,10Zm4.59,0H22.68a21.1,21.1,0,0,1,.55,4.17h3.43A10.57,10.57,0,0,0,25.43,10ZM21,5.57a14.86,14.86,0,0,1,1.23,2.76h2.1A10.86,10.86,0,0,0,21,5.57ZM20.84,10H16.36v4.17h5.15A16.84,16.84,0,0,0,20.84,10Zm-4.48,5.83V20h4.48a16.84,16.84,0,0,0,.67-4.17Zm5.85,5.84A14.86,14.86,0,0,1,21,24.43a10.86,10.86,0,0,0,3.33-2.76ZM9.49,15.83A16.84,16.84,0,0,0,10.16,20h4.48V15.83Zm0,0A16.84,16.84,0,0,0,10.16,20h4.48V15.83Zm0,0A16.84,16.84,0,0,0,10.16,20h4.48V15.83Zm0,0A16.84,16.84,0,0,0,10.16,20h4.48V15.83Zm0,0A16.84,16.84,0,0,0,10.16,20h4.48V15.83Zm0,0A16.84,16.84,0,0,0,10.16,20h4.48V15.83Zm-1.72,0H4.34A10.57,10.57,0,0,0,5.57,20H8.32A21.1,21.1,0,0,1,7.77,15.83Zm1.72,0A16.84,16.84,0,0,0,10.16,20h4.48V15.83Zm0,0A16.84,16.84,0,0,0,10.16,20h4.48V15.83Zm0,0A16.84,16.84,0,0,0,10.16,20h4.48V15.83Zm0,0A16.84,16.84,0,0,0,10.16,20h4.48V15.83Zm0,0A16.84,16.84,0,0,0,10.16,20h4.48V15.83Zm-.7,5.84H6.69A10.86,10.86,0,0,0,10,24.43,14.86,14.86,0,0,1,8.79,21.67Zm.7-5.84A16.84,16.84,0,0,0,10.16,20h4.48V15.83ZM15.81,4.18a3.53,3.53,0,0,1,.55.1V4.21A5.07,5.07,0,0,0,15.81,4.18ZM10.16,10a16.84,16.84,0,0,0-.67,4.17h5.15V10Zm0,0a16.84,16.84,0,0,0-.67,4.17h5.15V10Zm0,0a16.84,16.84,0,0,0-.67,4.17h5.15V10Zm0,0a16.84,16.84,0,0,0-.67,4.17h5.15V10Zm0,0a16.84,16.84,0,0,0-.67,4.17h5.15V10Zm0,0a16.84,16.84,0,0,0-.67,4.17h5.15V10ZM5.57,10a10.57,10.57,0,0,0-1.23,4.17H7.77A21.1,21.1,0,0,1,8.32,10Zm4.59,0a16.84,16.84,0,0,0-.67,4.17h5.15V10Zm0,0a16.84,16.84,0,0,0-.67,4.17h5.15V10Zm0,0a16.84,16.84,0,0,0-.67,4.17h5.15V10Zm0,0a16.84,16.84,0,0,0-.67,4.17h5.15V10Zm0,0a16.84,16.84,0,0,0-.67,4.17h5.15V10Zm0,0a16.84,16.84,0,0,0-.67,4.17h5.15V10Z" transform="translate(-4.34 -4.18)"/><path class="cls-2" d="M14.64,4.28V8.33H10.76C11.69,6.18,13.06,4.68,14.64,4.28Z" transform="translate(-4.34 -4.18)"/><path class="cls-2" d="M15.19,4.18a3.53,3.53,0,0,0-.55.1V4.21A5.07,5.07,0,0,1,15.19,4.18Z" transform="translate(-4.34 -4.18)"/><path class="cls-2" d="M16.36,4.21v.07a3.53,3.53,0,0,0-.55-.1A5.07,5.07,0,0,1,16.36,4.21Z" transform="translate(-4.34 -4.18)"/><path class="cls-2" d="M20.24,8.33H16.36v-4C17.94,4.68,19.31,6.18,20.24,8.33Z" transform="translate(-4.34 -4.18)"/><path class="cls-2" d="M10.16,10a16.84,16.84,0,0,0-.67,4.17h5.15V10Zm.6,11.67c.93,2.15,2.3,3.65,3.88,4v-4Zm3.88,4v.08l.55,0A3.53,3.53,0,0,1,14.64,25.72Zm1.17.1.55,0v-.08A3.53,3.53,0,0,1,15.81,25.82Zm.55-4.15v4c1.58-.4,2.95-1.9,3.88-4Zm0-5.84V20h4.48a16.84,16.84,0,0,0,.67-4.17ZM20.84,10H16.36v4.17h5.15A16.84,16.84,0,0,0,20.84,10ZM9.49,15.83A16.84,16.84,0,0,0,10.16,20h4.48V15.83Z" transform="translate(-4.34 -4.18)"/><path class="cls-2" d="M14.64,4.28V8.33H10.76C11.69,6.18,13.06,4.68,14.64,4.28Z" transform="translate(-4.34 -4.18)"/><path class="cls-2" d="M15.19,4.18a3.53,3.53,0,0,0-.55.1V4.21A5.07,5.07,0,0,1,15.19,4.18Z" transform="translate(-4.34 -4.18)"/><path class="cls-2" d="M16.36,4.21v.07a3.53,3.53,0,0,0-.55-.1A5.07,5.07,0,0,1,16.36,4.21Z" transform="translate(-4.34 -4.18)"/><path class="cls-2" d="M20.24,8.33H16.36v-4C17.94,4.68,19.31,6.18,20.24,8.33Z" transform="translate(-4.34 -4.18)"/><path class="cls-2" d="M10.16,10a16.84,16.84,0,0,0-.67,4.17h5.15V10Zm.6,11.67c.93,2.15,2.3,3.65,3.88,4v-4Zm3.88,4v.08l.55,0A3.53,3.53,0,0,1,14.64,25.72Zm1.17.1.55,0v-.08A3.53,3.53,0,0,1,15.81,25.82Zm.55-4.15v4c1.58-.4,2.95-1.9,3.88-4Zm0-5.84V20h4.48a16.84,16.84,0,0,0,.67-4.17ZM20.84,10H16.36v4.17h5.15A16.84,16.84,0,0,0,20.84,10ZM9.49,15.83A16.84,16.84,0,0,0,10.16,20h4.48V15.83Z" transform="translate(-4.34 -4.18)"/><path class="cls-3" d="M14.64,4.28V8.33H10.76C11.69,6.18,13.06,4.68,14.64,4.28Z" transform="translate(-4.34 -4.18)"/><path class="cls-3" d="M20.24,8.33H16.36v-4C17.94,4.68,19.31,6.18,20.24,8.33Z" transform="translate(-4.34 -4.18)"/><path class="cls-3" d="M14.64,10v4.17H9.49A16.84,16.84,0,0,1,10.16,10Z" transform="translate(-4.34 -4.18)"/><path class="cls-3" d="M10.76,21.67h3.88v4C13.06,25.32,11.69,23.82,10.76,21.67Z" transform="translate(-4.34 -4.18)"/><path class="cls-3" d="M20.24,21.67c-.93,2.15-2.3,3.65-3.88,4v-4Z" transform="translate(-4.34 -4.18)"/><path class="cls-3" d="M14.64,15.83V20H10.16a16.84,16.84,0,0,1-.67-4.17Z" transform="translate(-4.34 -4.18)"/><path class="cls-3" d="M21.51,15.83A16.84,16.84,0,0,1,20.84,20H16.36V15.83Z" transform="translate(-4.34 -4.18)"/><path class="cls-3" d="M21.51,14.17H16.36V10h4.48A16.84,16.84,0,0,1,21.51,14.17Z" transform="translate(-4.34 -4.18)"/><path class="cls-2" d="M15.19,4.18a3.53,3.53,0,0,0-.55.1V4.21A5.07,5.07,0,0,1,15.19,4.18Z" transform="translate(-4.34 -4.18)"/><path class="cls-2" d="M16.36,4.21v.07a3.53,3.53,0,0,0-.55-.1A5.07,5.07,0,0,1,16.36,4.21Z" transform="translate(-4.34 -4.18)"/><path class="cls-2" d="M14.64,25.72a3.53,3.53,0,0,0,.55.1l-.55,0Z" transform="translate(-4.34 -4.18)"/><path class="cls-2" d="M16.36,25.72v.08l-.55,0A3.53,3.53,0,0,0,16.36,25.72Z" transform="translate(-4.34 -4.18)"/></svg>