<svg id="Слой_1" data-name="Слой 1" xmlns="http://www.w3.org/2000/svg" viewBox="0 0 20.82 22.09"><defs><style>.cls-1{fill:#bfbfbf;}</style></defs><title>left_double_arrow</title><path class="cls-1" d="M19.21,22.61a1.51,1.51,0,0,0,2.12,0,1.49,1.49,0,0,0,0-2.12L12.85,12l8.48-8.49a1.49,1.49,0,0,0,0-2.12,1.51,1.51,0,0,0-2.12,0L9.67,10.94a1.49,1.49,0,0,0,0,2.12ZM11.73,10.5h-1v3h1Z" transform="translate(-0.95 -0.95)"/><path class="cls-1" d="M10.94,22.61a1.51,1.51,0,0,0,2.12,0,1.49,1.49,0,0,0,0-2.12L4.58,12l8.48-8.49a1.49,1.49,0,0,0,0-2.12,1.51,1.51,0,0,0-2.12,0L1.39,10.94a1.51,1.51,0,0,0,0,2.12ZM3.45,10.5h-1v3h1Z" transform="translate(-0.95 -0.95)"/></svg>