<svg id="Слой_1" data-name="Слой 1" xmlns="http://www.w3.org/2000/svg" viewBox="0 0 160.77 120.98"><defs><style>.cls-1{fill:#bfbfbf;}</style></defs><title>logo</title><path class="cls-1" d="M285.49,377.76a116.09,116.09,0,0,0,1.16-12.4c.11-2.49.13-4.94.08-7.34,0-1,0-2.08-.09-3.1,0-.07,0-.14,0-.21l-.15-.09a28.81,28.81,0,0,0-5.89-7.14c-.2-.19-.4-.38-.61-.55a7.62,7.62,0,0,1-.13-1.35V317a45.5,45.5,0,0,1,.37-5.88c0-.48.12-1,.19-1.41a47.34,47.34,0,0,1,1.24-5.63,3.84,3.84,0,0,0-1.54.07L235.26,315.3a4,4,0,0,0-2.92,4.85l17.71,71.06a4,4,0,0,0,4.85,2.91l38.43-9.57A94.71,94.71,0,0,1,285.49,377.76ZM243.43,328l-5.18-3.34,3.34-5.19,5.19,3.34Zm25.69,28.61-9.1-5.86,5.87-9.09,9.09,5.86Z" transform="translate(-232.22 -273.88)"/><path class="cls-1" d="M301.37,382.11a77.34,77.34,0,0,1-9.72-8,97.56,97.56,0,0,0,1-10.35c.09-2.08.11-4.13.07-6.13,0-.87,0-1.74-.08-2.59,0-.06,0-.12,0-.18l-.12-.07a24,24,0,0,0-4.92-6l-.51-.47a6,6,0,0,1-.11-1.12V323.35a37.74,37.74,0,0,1,.31-4.91c0-.4.1-.79.16-1.18a1.85,1.85,0,0,1,0-.23l1.89,7.61,4.78,19.19,8.54,34.27A4,4,0,0,1,301.37,382.11Z" transform="translate(-232.22 -273.88)"/><path class="cls-1" d="M354.09,374.11c-.68.66-1.37,1.32-2.1,2a4.41,4.41,0,0,1,2-2.77C354,373.58,354.05,373.84,354.09,374.11Z" transform="translate(-232.22 -273.88)"/><path class="cls-1" d="M377.93,385.09l-4-13.31a4.45,4.45,0,0,0-5.55-3l-8.85,2.68c.19,2.15.44,4.25.75,6.28-2,2-4.25,3.93-6.62,5.82l2.46,8.12a4.46,4.46,0,0,0,5.55,3l13.32-4A4.45,4.45,0,0,0,377.93,385.09Zm-16.34,6.59a2.14,2.14,0,1,1,.88-2.9A2.13,2.13,0,0,1,361.59,391.68Zm4.42-8.05a2.15,2.15,0,1,1,.88-2.91A2.14,2.14,0,0,1,366,383.63Zm3-7.75a2.14,2.14,0,1,1,2.52-1.68A2.14,2.14,0,0,1,369,375.88Zm5.13,12A2.15,2.15,0,1,1,375,385,2.14,2.14,0,0,1,374.14,387.89Z" transform="translate(-232.22 -273.88)"/><path class="cls-1" d="M392.5,353.07l-6.33-12.39a4.45,4.45,0,0,0-6-1.94l-12.39,6.34a4.45,4.45,0,0,0-1.94,6l6.33,12.38a4.45,4.45,0,0,0,6,1.94l12.39-6.33A4.45,4.45,0,0,0,392.5,353.07Zm-20.71-2.24a2.14,2.14,0,1,1,.35-3A2.14,2.14,0,0,1,371.79,350.83Zm8.72,2.92a2.15,2.15,0,1,1,.34-3A2.14,2.14,0,0,1,380.51,353.75Zm7.25,3.4a2.14,2.14,0,1,1,2.18-2.1A2.13,2.13,0,0,1,387.76,357.15Z" transform="translate(-232.22 -273.88)"/><path class="cls-1" d="M358.8,323.35v23.89a6,6,0,0,1-.11,1.12l-.51.47a24,24,0,0,0-4.92,6l-.12.07c0,.06,0,.12,0,.18,0,.85-.06,1.72-.08,2.59,0,2,0,4.05.07,6.13.14,3.31.43,6.51.86,9.55,0,.27.07.53.11.8-.68.66-1.37,1.32-2.1,2a85.31,85.31,0,0,1-17,11.77l-1,.54c-.74-3.89-1.34-8.22-1.78-12.86-.28-2.92-.5-6-.64-9.12-.08-1.77-.14-3.58-.18-5.41l0-2.08c0-.76,0-1.51,0-2.27q0-3.9.14-7.64l1.65-.17c1.5-.18,3-.39,4.36-.65a61,61,0,0,0,7.17-1.67,39.7,39.7,0,0,0,6.18-2.36.06.06,0,0,1,0,0c.32-2.52.58-5.32.74-8.27.11-2.15.17-4.22.16-6.17q-3.18.29-6.68.49c-5.61.36-11.75.58-18.22.65h-.58c-.05,1.64-.08,3.31-.08,5,0,1.92,0,3.79.1,5.6.1,2.94.29,5.73.54,8.31A73.41,73.41,0,0,0,328.41,360a22.3,22.3,0,0,0-5.53,3.4h0a22.3,22.3,0,0,0-5.53-3.4A73.41,73.41,0,0,0,319,349.77c.25-2.58.44-5.37.54-8.31.07-1.81.1-3.68.1-5.6,0-1.72,0-3.39-.08-5h-.58c-6.47-.07-12.61-.29-18.22-.65q-3.49-.21-6.68-.49c0,1.95.05,4,.16,6.17.16,2.95.42,5.75.74,8.27a.06.06,0,0,1,0,0,39.7,39.7,0,0,0,6.18,2.36,61,61,0,0,0,7.17,1.67c1.41.26,2.86.47,4.36.65l1.65.17q.13,3.74.14,7.64c0,.76,0,1.51,0,2.27l0,2.08c0,1.83-.1,3.64-.18,5.41-.14,3.14-.36,6.2-.64,9.12-.44,4.64-1,9-1.78,12.86l-1-.54a89,89,0,0,1-9.4-5.74,77.34,77.34,0,0,1-9.72-8,97.56,97.56,0,0,0,1-10.35c.09-2.08.11-4.13.07-6.13,0-.87,0-1.74-.08-2.59,0-.06,0-.12,0-.18l-.12-.07a24,24,0,0,0-4.92-6l-.51-.47a6,6,0,0,1-.11-1.12V323.35a37.74,37.74,0,0,1,.31-4.91c0-.4.1-.79.16-1.18a1.85,1.85,0,0,1,0-.23,38.33,38.33,0,0,1,1.88-7.15c5.19-14.05,18.25-20.91,33.54-20.91a39.92,39.92,0,0,1,20.56,5.19,30,30,0,0,1,13,15.72,38.27,38.27,0,0,1,1.92,7.38c.06.39.12.78.16,1.18A37.74,37.74,0,0,1,358.8,323.35Z" transform="translate(-232.22 -273.88)"/><path class="cls-1" d="M330.37,278.26a30,30,0,0,1-7.49-4.38v0l0,0a30,30,0,0,1-7.49,4.38,89.21,89.21,0,0,1,2.19,13.17h10.63A89.21,89.21,0,0,1,330.37,278.26Z" transform="translate(-232.22 -273.88)"/></svg>