<svg id="Слой_1" data-name="Слой 1" xmlns="http://www.w3.org/2000/svg" viewBox="0 0 18.4 19"><defs><style>.cls-1{fill:#bfbfbf;}.cls-2{fill:#262626;}</style></defs><title>Magnifier</title><path class="cls-1" d="M18.4,17.7,17.16,19,11.7,13.81,11,13.17l-.67-.64a5.61,5.61,0,0,0,1.42-1.14l.65.63.65.61Z" transform="translate(0 0)"/><path class="cls-2" d="M7.53.9a6.64,6.64,0,0,0,0,13.27,6.52,6.52,0,0,0,3.49-1A6.18,6.18,0,0,0,12.42,12,6.63,6.63,0,0,0,7.53.9Zm4.24,10.49a5.61,5.61,0,0,1-1.42,1.14,5.79,5.79,0,1,1,1.42-1.14Z" transform="translate(0 0)"/><path class="cls-1" d="M7.53,0A7.54,7.54,0,1,0,11.7,13.81a7,7,0,0,0,1.37-1.18A7.52,7.52,0,0,0,7.53,0Zm0,13.27a5.74,5.74,0,1,1,5.74-5.74,5.68,5.68,0,0,1-1.5,3.86,5.61,5.61,0,0,1-1.42,1.14A5.7,5.7,0,0,1,7.53,13.27Z" transform="translate(0 0)"/></svg>