<?xml version="1.0" encoding="utf-8"?>
<!-- Generator: Adobe Illustrator 23.1.0, SVG Export Plug-In . SVG Version: 6.00 Build 0)  -->
<svg version="1.1" id="Слой_1" xmlns="http://www.w3.org/2000/svg" xmlns:xlink="http://www.w3.org/1999/xlink" x="0px" y="0px"
	 viewBox="0 0 18.9 19" style="enable-background:new 0 0 18.9 19;" xml:space="preserve">
<style type="text/css">
	.st0{fill:#BFBFBF;}
	.st1{fill:#262626;}
</style>
<title>Magnifier</title>
<path class="st0" d="M18.7,17.7L17.4,19L12,13.8l-0.7-0.6l-0.7-0.6c0.5-0.3,1-0.7,1.4-1.1l0.6,0.6l0.6,0.6L18.7,17.7z"/>
<path class="st1" d="M7.8,0.9C4.1,1,1.3,4.1,1.4,7.8c0.1,3.5,2.9,6.2,6.4,6.4c1.2,0,2.4-0.3,3.5-1c0.5-0.3,1-0.7,1.4-1.2
	c2.5-2.7,2.3-6.9-0.4-9.4C11,1.5,9.4,0.9,7.8,0.9z M12,11.4c-0.4,0.5-0.9,0.8-1.4,1.1c-2.8,1.6-6.3,0.6-7.9-2.2S2.1,4.1,4.9,2.5
	s6.3-0.6,7.9,2.2C14,6.8,13.7,9.5,12,11.4z"/>
<path class="st0" d="M7.8,0C3.6,0,0.2,3.4,0.2,7.5s3.4,7.5,7.5,7.6c1.5,0,3-0.4,4.2-1.3c0.5-0.3,1-0.7,1.4-1.2
	c2.8-3,2.6-7.8-0.4-10.6C11.5,0.7,9.7,0,7.8,0z M7.8,13.3C4.6,13.3,2,10.7,2,7.5s2.6-5.7,5.7-5.7s5.7,2.6,5.7,5.7
	c0,1.4-0.5,2.8-1.5,3.9c-0.4,0.5-0.9,0.8-1.4,1.1C9.7,13,8.8,13.3,7.8,13.3z"/>
</svg>
