<svg width="107" height="35" viewBox="0 0 107 35" fill="none" xmlns="http://www.w3.org/2000/svg">
<path d="M16.592 1.78543C16.7417 1.32477 17.3934 1.32477 17.5431 1.78542L20.7872 11.7698C20.8541 11.9758 21.0461 12.1153 21.2627 12.1153H31.7609C32.2453 12.1153 32.4467 12.7351 32.0548 13.0198L23.5616 19.1905C23.3864 19.3178 23.313 19.5435 23.38 19.7495L26.6241 29.7339C26.7738 30.1945 26.2465 30.5776 25.8547 30.2929L17.3614 24.1222C17.1862 23.9949 16.9489 23.9949 16.7737 24.1222L8.28045 30.2929C7.88859 30.5776 7.36135 30.1945 7.51103 29.7339L10.7551 19.7495C10.8221 19.5435 10.7488 19.3178 10.5735 19.1905L2.0803 13.0198C1.68844 12.7351 1.88983 12.1153 2.37419 12.1153H12.8724C13.089 12.1153 13.281 11.9758 13.3479 11.7698L16.592 1.78543Z" fill="#C4C4C4"/>
<path d="M16.592 1.78543C16.7417 1.32477 17.3934 1.32477 17.5431 1.78542L20.7872 11.7698C20.8541 11.9758 21.0461 12.1153 21.2627 12.1153H31.7609C32.2453 12.1153 32.4467 12.7351 32.0548 13.0198L23.5616 19.1905C23.3864 19.3178 23.313 19.5435 23.38 19.7495L26.6241 29.7339C26.7738 30.1945 26.2465 30.5776 25.8547 30.2929L17.3614 24.1222C17.1862 23.9949 16.9489 23.9949 16.7737 24.1222L8.28045 30.2929C7.88859 30.5776 7.36135 30.1945 7.51103 29.7339L10.7551 19.7495C10.8221 19.5435 10.7488 19.3178 10.5735 19.1905L2.0803 13.0198C1.68844 12.7351 1.88983 12.1153 2.37419 12.1153H12.8724C13.089 12.1153 13.281 11.9758 13.3479 11.7698L16.592 1.78543Z" stroke="#BFBFBF"/>
<path d="M52.5989 1.46353C52.7485 1.00287 53.4002 1.00287 53.5499 1.46353L56.794 11.4479C56.861 11.6539 57.053 11.7934 57.2696 11.7934H67.7678C68.2521 11.7934 68.4535 12.4132 68.0616 12.6979L59.5684 18.8686C59.3932 18.9959 59.3199 19.2216 59.3868 19.4276L62.6309 29.412C62.7806 29.8726 62.2534 30.2557 61.8615 29.971L53.3683 23.8003C53.193 23.673 52.9557 23.673 52.7805 23.8003L44.2873 29.971C43.8954 30.2557 43.3682 29.8726 43.5179 29.412L46.762 19.4276C46.8289 19.2216 46.7556 18.9959 46.5803 18.8686L38.0871 12.6979C37.6953 12.4132 37.8967 11.7934 38.381 11.7934H48.8792C49.0958 11.7934 49.2878 11.6539 49.3547 11.4479L52.5989 1.46353Z" fill="#C4C4C4"/>
<path d="M52.5989 1.46353C52.7485 1.00287 53.4002 1.00287 53.5499 1.46353L56.794 11.4479C56.861 11.6539 57.053 11.7934 57.2696 11.7934H67.7678C68.2521 11.7934 68.4535 12.4132 68.0616 12.6979L59.5684 18.8686C59.3932 18.9959 59.3199 19.2216 59.3868 19.4276L62.6309 29.412C62.7806 29.8726 62.2534 30.2557 61.8615 29.971L53.3683 23.8003C53.193 23.673 52.9557 23.673 52.7805 23.8003L44.2873 29.971C43.8954 30.2557 43.3682 29.8726 43.5179 29.412L46.762 19.4276C46.8289 19.2216 46.7556 18.9959 46.5803 18.8686L38.0871 12.6979C37.6953 12.4132 37.8967 11.7934 38.381 11.7934H48.8792C49.0958 11.7934 49.2878 11.6539 49.3547 11.4479L52.5989 1.46353Z" stroke="#BFBFBF"/>
<path d="M88.9562 1.78543C89.1058 1.32477 89.7575 1.32477 89.9072 1.78542L93.1513 11.7698C93.2183 11.9758 93.4103 12.1153 93.6269 12.1153H104.125C104.609 12.1153 104.811 12.7351 104.419 13.0198L95.9257 19.1905C95.7505 19.3178 95.6772 19.5435 95.7441 19.7495L98.9882 29.7339C99.1379 30.1945 98.6107 30.5776 98.2188 30.2929L89.7256 24.1222C89.5503 23.9949 89.313 23.9949 89.1378 24.1222L80.6446 30.2929C80.2527 30.5776 79.7255 30.1945 79.8752 29.7339L83.1193 19.7495C83.1862 19.5435 83.1129 19.3178 82.9376 19.1905L74.4444 13.0198C74.0526 12.7351 74.254 12.1153 74.7383 12.1153H85.2365C85.4531 12.1153 85.6451 11.9758 85.712 11.7698L88.9562 1.78543Z" fill="#C4C4C4"/>
<path d="M88.9562 1.78543C89.1058 1.32477 89.7575 1.32477 89.9072 1.78542L93.1513 11.7698C93.2183 11.9758 93.4103 12.1153 93.6269 12.1153H104.125C104.609 12.1153 104.811 12.7351 104.419 13.0198L95.9257 19.1905C95.7505 19.3178 95.6772 19.5435 95.7441 19.7495L98.9882 29.7339C99.1379 30.1945 98.6107 30.5776 98.2188 30.2929L89.7256 24.1222C89.5503 23.9949 89.313 23.9949 89.1378 24.1222L80.6446 30.2929C80.2527 30.5776 79.7255 30.1945 79.8752 29.7339L83.1193 19.7495C83.1862 19.5435 83.1129 19.3178 82.9376 19.1905L74.4444 13.0198C74.0526 12.7351 74.254 12.1153 74.7383 12.1153H85.2365C85.4531 12.1153 85.6451 11.9758 85.712 11.7698L88.9562 1.78543Z" stroke="#BFBFBF"/>
<path d="M88.8489 7.43893C88.9986 6.97827 89.6503 6.97827 89.8 7.43893L91.7508 13.4428C91.8177 13.6488 92.0097 13.7883 92.2263 13.7883L98.5391 13.7883C99.0235 13.7883 99.2249 14.4081 98.833 14.6928L93.7258 18.4034C93.5506 18.5307 93.4773 18.7564 93.5442 18.9624L95.495 24.9662C95.6446 25.4269 95.1174 25.8099 94.7255 25.5252L89.6184 21.8147C89.4431 21.6873 89.2058 21.6873 89.0306 21.8147L83.9234 25.5252C83.5315 25.8099 83.0043 25.4269 83.154 24.9662L85.1047 18.9624C85.1717 18.7564 85.0984 18.5307 84.9231 18.4034L79.8159 14.6928C79.4241 14.4081 79.6255 13.7883 80.1098 13.7883L86.4226 13.7883C86.6393 13.7883 86.8312 13.6488 86.8982 13.4428L88.8489 7.43893Z" fill="#262626"/>
<path d="M88.8489 7.43893C88.9986 6.97827 89.6503 6.97827 89.8 7.43893L91.7508 13.4428C91.8177 13.6488 92.0097 13.7883 92.2263 13.7883L98.5391 13.7883C99.0235 13.7883 99.2249 14.4081 98.833 14.6928L93.7258 18.4034C93.5506 18.5307 93.4773 18.7564 93.5442 18.9624L95.495 24.9662C95.6446 25.4269 95.1174 25.8099 94.7255 25.5252L89.6184 21.8147C89.4431 21.6873 89.2058 21.6873 89.0306 21.8147L83.9234 25.5252C83.5315 25.8099 83.0043 25.4269 83.154 24.9662L85.1047 18.9624C85.1717 18.7564 85.0984 18.5307 84.9231 18.4034L79.8159 14.6928C79.4241 14.4081 79.6255 13.7883 80.1098 13.7883L86.4226 13.7883C86.6393 13.7883 86.8312 13.6488 86.8982 13.4428L88.8489 7.43893Z" stroke="#BFBFBF"/>
</svg>
