<svg id="Слой_1" data-name="Слой 1" xmlns="http://www.w3.org/2000/svg" viewBox="0 0 20.82 22.09"><defs><style>.cls-1{fill:#bfbfbf;}</style></defs><title>right_double_arrow</title><path class="cls-1" d="M13.06,13.06a1.49,1.49,0,0,0,0-2.12L3.51,1.39A1.5,1.5,0,0,0,1.39,3.51L9.88,12,1.39,20.49a1.5,1.5,0,0,0,2.12,2.12ZM11,13.5h1v-3H11Z" transform="translate(-0.95 -0.95)"/><path class="cls-1" d="M21.33,13.06a1.49,1.49,0,0,0,0-2.12L11.79,1.39a1.51,1.51,0,0,0-2.12,0,1.49,1.49,0,0,0,0,2.12L18.15,12,9.67,20.49a1.49,1.49,0,0,0,0,2.12,1.51,1.51,0,0,0,2.12,0Zm-2.06.44h1v-3h-1Z" transform="translate(-0.95 -0.95)"/></svg>