<?xml version="1.0" encoding="utf-8"?>
<!-- Generator: Adobe Illustrator 23.1.0, SVG Export Plug-In . SVG Version: 6.00 Build 0)  -->
<svg version="1.1" id="Слой_1" xmlns="http://www.w3.org/2000/svg" xmlns:xlink="http://www.w3.org/1999/xlink" x="0px" y="0px"
	 viewBox="0 0 37.6 39.3" style="enable-background:new 0 0 37.6 39.3;" xml:space="preserve">
<style type="text/css">
	.st0{fill:#BFBFBF;}
	.st1{fill:#2D2D2D;}
</style>
<ellipse class="st0" cx="18.8" cy="18.6" rx="15.6" ry="15.6"/>
<path class="st0" d="M11.6,12.3l0.8-0.8c1.7-1.7,1.7-4.4,0-6.1l0,0c-1.7-1.7-4.4-1.7-6.1,0L5.5,6.2c-1.7,1.7-1.7,4.4,0,6.1l0,0
	C7.2,13.9,9.9,13.9,11.6,12.3z"/>
<path class="st0" d="M11.6,24.5l0.8,0.8c1.7,1.7,1.7,4.4,0,6.1l0,0c-1.7,1.7-4.4,1.7-6.1,0l-0.8-0.8c-1.7-1.7-1.7-4.4,0-6.1l0,0
	C7.2,22.8,9.9,22.8,11.6,24.5z"/>
<path class="st0" d="M18.2,0.6h1.1c2.4,0,4.3,1.9,4.3,4.3l0,0c0,2.4-1.9,4.3-4.3,4.3h-1.1c-2.4,0-4.3-1.9-4.3-4.3l0,0
	C13.9,2.6,15.8,0.6,18.2,0.6z"/>
<path class="st0" d="M18.2,36.5h1.1c2.4,0,4.3-1.9,4.3-4.3l0,0c0-2.4-1.9-4.3-4.3-4.3h-1.1c-2.4,0-4.3,1.9-4.3,4.3l0,0
	C13.9,34.6,15.8,36.5,18.2,36.5z"/>
<path class="st0" d="M0.9,19v-1.1c0-2.4,1.9-4.3,4.3-4.3l0,0c2.4,0,4.3,1.9,4.3,4.3V19c0,2.4-1.9,4.3-4.3,4.3l0,0
	C2.8,23.3,0.9,21.4,0.9,19z"/>
<path class="st0" d="M26.4,12.3l-0.8-0.8c-1.7-1.7-1.7-4.4,0-6.1l0,0c1.7-1.7,4.4-1.7,6.1,0l0.8,0.8c1.7,1.7,1.7,4.4,0,6.1l0,0
	C30.8,13.9,28.1,13.9,26.4,12.3z"/>
<path class="st0" d="M26.4,24.5l-0.8,0.8c-1.7,1.7-1.7,4.4,0,6.1l0,0c1.7,1.7,4.4,1.7,6.1,0l0.8-0.8c1.7-1.7,1.7-4.4,0-6.1l0,0
	C30.8,22.9,28.1,22.9,26.4,24.5z"/>
<path class="st0" d="M36.7,19v-1.1c0-2.4-1.9-4.3-4.3-4.3l0,0c-2.4,0-4.3,1.9-4.3,4.3V19c0,2.4,1.9,4.3,4.3,4.3l0,0
	C34.8,23.3,36.7,21.4,36.7,19z"/>
<ellipse class="st1" cx="18.8" cy="18.5" rx="7.6" ry="7.6"/>
</svg>
