<svg width="25" height="25" viewBox="0 0 25 25" fill="none" xmlns="http://www.w3.org/2000/svg">
<path d="M11.3494 1.80517C11.7385 0.607464 13.433 0.607462 13.8221 1.80517L15.8476 8.03894C16.0216 8.57457 16.5208 8.93722 17.084 8.93722H23.6385C24.8979 8.93722 25.4215 10.5487 24.4027 11.2889L19.0999 15.1416C18.6443 15.4727 18.4536 16.0594 18.6277 16.5951L20.6531 22.8288C21.0423 24.0265 19.6715 25.0225 18.6526 24.2823L13.3499 20.4296C12.8942 20.0986 12.2773 20.0986 11.8216 20.4296L6.51887 24.2823C5.50004 25.0225 4.12922 24.0265 4.51837 22.8288L6.54385 16.5951C6.71788 16.0594 6.52723 15.4727 6.0716 15.1416L0.768833 11.2889C-0.249995 10.5487 0.273612 8.93722 1.53295 8.93722H8.08753C8.65072 8.93722 9.14987 8.57457 9.3239 8.03894L11.3494 1.80517Z" fill="#7135F2"/>
</svg>
