<?xml version="1.0" encoding="utf-8"?>
<!-- Generator: Adobe Illustrator 23.1.0, SVG Export Plug-In . SVG Version: 6.00 Build 0)  -->
<svg version="1.1" id="Слой_1" xmlns="http://www.w3.org/2000/svg" xmlns:xlink="http://www.w3.org/1999/xlink" x="0px" y="0px"
	 viewBox="0 0 25 25" style="enable-background:new 0 0 25 25;" xml:space="preserve">
<style type="text/css">
	.st0{fill:#7135F2;}
	.st1{fill:#262626;}
</style>
<path class="st0" d="M14.6,4.2l-3.9,17.1l-4.2,3.1c-1,0.7-2.4-0.3-2-1.5l2-6.2c0.2-0.5,0-1.1-0.5-1.5l-5.3-3.9
	c-1-0.7-0.5-2.4,0.8-2.4h6.6c0.6,0,1.1-0.4,1.2-0.9l2-6.2c0.4-1.2,2.1-1.2,2.5,0L14.6,4.2z"/>
<path class="st1" d="M18.6,16.7l2,6.2c0.4,1.2-1,2.2-2,1.5l-5.3-3.9c-0.5-0.3-1.1-0.3-1.5,0l-1.1,0.8l3.9-17.1L15.8,8
	C16,8.5,16.5,8.9,17,8.9h6.6c1.3,0,1.8,1.6,0.8,2.4l-5.3,3.9C18.6,15.5,18.5,16.1,18.6,16.7z"/>
</svg>
