<svg width="26" height="25" viewBox="0 0 26 25" fill="none" xmlns="http://www.w3.org/2000/svg">
<path d="M11.9351 1.80517C12.3243 0.607464 14.0187 0.607462 14.4079 1.80517L16.4334 8.03894C16.6074 8.57457 17.1065 8.93722 17.6697 8.93722H24.2243C25.4836 8.93722 26.0073 10.5487 24.9884 11.2889L19.6857 15.1416C19.23 15.4727 19.0394 16.0594 19.2134 16.5951L21.2389 22.8288C21.628 24.0265 20.2572 25.0225 19.2384 24.2823L13.9356 20.4296C13.48 20.0986 12.863 20.0986 12.4074 20.4296L7.10462 24.2823C6.0858 25.0225 4.71497 24.0265 5.10413 22.8288L7.1296 16.5951C7.30364 16.0594 7.11298 15.4727 6.65735 15.1416L1.35459 11.2889C0.33576 10.5487 0.859366 8.93722 2.11871 8.93722H8.67328C9.23648 8.93722 9.73562 8.57457 9.90966 8.03894L11.9351 1.80517Z" fill="#262626"/>
</svg>
