<svg id="Слой_1" data-name="Слой 1" xmlns="http://www.w3.org/2000/svg" viewBox="0 0 19 25.91"><defs><style>.cls-1{fill:#bfbfbf;}.cls-2{fill:#262626;}</style></defs><title>user</title><circle class="cls-1" cx="7.77" cy="6.05" r="6.05"/><path class="cls-1" d="M15.55,17.11a2.75,2.75,0,0,1,0,.41v.12a6.39,6.39,0,0,1-.16,1,5.87,5.87,0,0,1-.31.95,2.32,2.32,0,0,0-2.58,3,5,5,0,0,1-.88.47,5,5,0,0,1-.95.31,6.39,6.39,0,0,1-1.58.2H6.48A6.47,6.47,0,0,1,0,17.5v0a2.23,2.23,0,0,1,0-.37,6.49,6.49,0,0,1,6.48-6.47H9.07A6.48,6.48,0,0,1,15.55,17.11Z" transform="translate(0 -0.27)"/><path class="cls-1" d="M15.55,17.64v2.08a2.75,2.75,0,0,0-.49-.14,2.32,2.32,0,0,0-2.58,3,2.28,2.28,0,0,0,.66,1H1a1,1,0,0,1-1-1V17.68a1.1,1.1,0,0,1,0-.18v0a1,1,0,0,1,1-.8H14.55a1,1,0,0,1,1,.84A.5.5,0,0,1,15.55,17.64Z" transform="translate(0 -0.27)"/><path class="cls-2" d="M15.55,18.67l-.18,0a3.1,3.1,0,0,0-.69-.08,3.32,3.32,0,0,0-3.32,3.31,3.12,3.12,0,0,0,.24,1.22,3,3,0,0,0,.25.51,3.32,3.32,0,1,0,3.7-4.92Zm-.87,5.51a2.35,2.35,0,0,1-2.2-1.57,2.36,2.36,0,0,1-.12-.75,2.33,2.33,0,0,1,2.7-2.28,2.75,2.75,0,0,1,.49.14,2.31,2.31,0,0,1-.87,4.46Z" transform="translate(0 -0.27)"/><path class="cls-1" d="M15.55,17.64h0a4,4,0,0,0-.85-.09,4.32,4.32,0,0,0-4.32,4.31,4.08,4.08,0,0,0,.29,1.53,1.18,1.18,0,0,0,.07.2,4.32,4.32,0,1,0,4.83-5.95Zm-.87,6.54a2.35,2.35,0,0,1-2.2-1.57,2.36,2.36,0,0,1-.12-.75,2.33,2.33,0,0,1,2.7-2.28,2.75,2.75,0,0,1,.49.14,2.31,2.31,0,0,1-.87,4.46Z" transform="translate(0 -0.27)"/></svg>